<svg width="28" height="28" viewBox="0 0 28 28" fill="none" xmlns="http://www.w3.org/2000/svg">
<path d="M20.1542 23.625L24.2083 19.6L22.9833 18.375L20.1542 21.1458L19.0167 20.0083L17.7917 21.2625L20.1542 23.625ZM7 10.5H21V8.16667H7V10.5ZM21 26.8333C19.3861 26.8333 18.0106 26.2644 16.8735 25.1265C15.7364 23.9886 15.1674 22.6131 15.1667 21C15.1667 19.3861 15.7356 18.0106 16.8735 16.8735C18.0114 15.7364 19.3869 15.1674 21 15.1667C22.6139 15.1667 23.9898 15.7356 25.1277 16.8735C26.2656 18.0114 26.8341 19.3869 26.8333 21C26.8333 22.6139 26.2644 23.9898 25.1265 25.1277C23.9886 26.2656 22.6131 26.8341 21 26.8333ZM3.5 25.6667V5.83333C3.5 5.19167 3.72867 4.64256 4.186 4.186C4.64333 3.72944 5.19244 3.50078 5.83333 3.5H22.1667C22.8083 3.5 23.3578 3.72867 23.8152 4.186C24.2725 4.64333 24.5008 5.19244 24.5 5.83333V13.6208C24.1306 13.4458 23.7514 13.3 23.3625 13.1833C22.9736 13.0667 22.575 12.9792 22.1667 12.9208V5.83333H5.83333V22.225H12.9208C13.0181 22.8278 13.1689 23.4014 13.3735 23.9458C13.5781 24.4903 13.8452 25.0056 14.175 25.4917L14 25.6667L12.25 23.9167L10.5 25.6667L8.75 23.9167L7 25.6667L5.25 23.9167L3.5 25.6667ZM7 19.8333H12.9208C12.9792 19.425 13.0667 19.0264 13.1833 18.6375C13.3 18.2486 13.4458 17.8694 13.6208 17.5H7V19.8333ZM7 15.1667H15.2833C16.0222 14.4472 16.8828 13.8783 17.8652 13.4598C18.8475 13.0414 19.8924 12.8326 21 12.8333H7V15.1667Z" fill="black" fill-opacity="0.6"/>
</svg>
