<svg width="28" height="28" viewBox="0 0 28 28" fill="none" xmlns="http://www.w3.org/2000/svg">
<path d="M12.4513 1.13745C12.9211 0.862467 13.4556 0.717529 14 0.717529C14.5444 0.717529 15.0789 0.862467 15.5487 1.13745L26.4862 7.5477C27.4242 8.0972 28 9.10345 28 10.1902V21.4375C28 22.2497 27.6773 23.0286 27.103 23.603C26.5287 24.1773 25.7497 24.5 24.9375 24.5H3.0625C2.25027 24.5 1.47132 24.1773 0.896985 23.603C0.322655 23.0286 0 22.2497 0 21.4375L0 10.1902C0 9.10345 0.5775 8.0972 1.51375 7.5477L12.4513 1.13745ZM14.2205 3.4002C14.1535 3.3615 14.0774 3.34112 14 3.34112C13.9226 3.34112 13.8465 3.3615 13.7795 3.4002L3.7695 9.26795L11.319 13.58C12.1121 13.0468 13.0461 12.7621 14.0018 12.7621C14.9574 12.7621 15.8914 13.0468 16.6845 13.58L24.2305 9.26795L14.2205 3.4002ZM23.0125 21.875L15.351 15.855C14.9657 15.5524 14.4899 15.3879 14 15.3879C13.5101 15.3879 13.0343 15.5524 12.649 15.855L4.9875 21.875H23.0125ZM25.375 11.6375L18.9227 15.323L25.375 20.3927V11.6375ZM9.07725 15.323L2.625 11.6375V20.3927L9.07725 15.323Z" fill="black" fill-opacity="0.6"/>
</svg>
